<svg xmlns="http://www.w3.org/2000/svg" width="23.672" height="41.406" viewBox="0 0 35.508 41.406">
  <g id="Group_7" data-name="Group 7" transform="translate(-633.006 -4416.297)">
    <path id="Icon_ionic-ios-arrow-back" data-name="Icon ionic-ios-arrow-back" d="M18.387,26.891,34.054,11.237a2.959,2.959,0,1,0-4.191-4.179L12.112,24.8a2.953,2.953,0,0,0-.086,4.08L29.85,46.737a2.959,2.959,0,0,0,4.191-4.179Z" transform="translate(633.591 4410.103)" fill="#fff"/>
    <path id="Icon_ionic-ios-arrow-back-2" data-name="Icon ionic-ios-arrow-back" d="M18.387,26.891,34.054,11.237a2.959,2.959,0,1,0-4.191-4.179L12.112,24.8a2.953,2.953,0,0,0-.086,4.08L29.85,46.737a2.959,2.959,0,0,0,4.191-4.179Z" transform="translate(621.755 4410.103)" fill="#fff"/>
  </g>
</svg>
